<svg width="24" height="25" viewBox="0 0 24 25" fill="none" xmlns="http://www.w3.org/2000/svg">
<path fill-rule="evenodd" clip-rule="evenodd" d="M19.0999 19.4764C19.6899 18.5764 19.9099 18.1164 20.3599 17.1064C17.0399 15.8464 16.5099 11.1164 19.7899 9.30641C18.7899 8.04641 17.3799 7.31641 16.0499 7.31641C15.0899 7.31641 14.4299 7.56641 13.8399 7.79641C13.3399 7.98641 12.8899 8.15641 12.3299 8.15641C11.7299 8.15641 11.1999 7.96641 10.6399 7.76641C10.0299 7.54641 9.38995 7.31641 8.58995 7.31641C7.09995 7.31641 5.50995 8.22641 4.49995 9.78641C3.07995 11.9864 3.32995 16.1064 5.61995 19.6264C6.43995 20.8864 7.53995 22.2964 8.96995 22.3164C9.56995 22.3264 9.95995 22.1464 10.3899 21.9564C10.8799 21.7364 11.4099 21.4964 12.3399 21.4964C13.2699 21.4864 13.7899 21.7364 14.2799 21.9564C14.6999 22.1464 15.0799 22.3264 15.6699 22.3164C17.1199 22.2964 18.2799 20.7364 19.0999 19.4764ZM15.8399 2.31641C15.9999 3.41641 15.5499 4.50641 14.9599 5.26641C14.3299 6.08641 13.2299 6.72641 12.1699 6.68641C11.9799 5.62641 12.4699 4.53641 13.0699 3.80641C13.7399 3.00641 14.8699 2.38641 15.8399 2.31641Z" fill="white"/>
</svg>
