<svg width="40" height="41" viewBox="0 0 40 41" fill="none" xmlns="http://www.w3.org/2000/svg">
<path d="M0.0999451 18.3563C0.266612 16.6563 0.616612 15.0483 1.14995 13.5323C1.68328 12.0163 2.41661 10.591 3.34995 9.25635C4.51661 10.4563 5.49195 11.8483 6.27595 13.4323C7.05995 15.0163 7.56795 16.6577 7.79995 18.3563H0.0999451ZM32.1999 18.3563C32.4333 16.6563 32.9333 15.023 33.6999 13.4563C34.4666 11.8897 35.4499 10.5063 36.6499 9.30635C37.5833 10.6063 38.3166 12.023 38.8499 13.5563C39.3833 15.0897 39.7333 16.6897 39.8999 18.3563H32.1999ZM3.34995 31.5063C2.41661 30.2063 1.68328 28.7977 1.14995 27.2803C0.616612 25.763 0.266612 24.155 0.0999451 22.4563H7.79995C7.56661 24.1563 7.05795 25.7897 6.27395 27.3563C5.48995 28.923 4.51595 30.3063 3.35195 31.5063H3.34995ZM36.6499 31.5063C35.4499 30.3063 34.4666 28.923 33.6999 27.3563C32.9333 25.7897 32.4333 24.1563 32.1999 22.4563H39.8999C39.7333 24.123 39.3833 25.723 38.8499 27.2563C38.3166 28.7897 37.5833 30.2063 36.6499 31.5063ZM11.8499 18.3563C11.5833 15.9563 10.9333 13.7397 9.89994 11.7063C8.86661 9.67302 7.51661 7.83968 5.84995 6.20635C7.44995 4.60635 9.27528 3.32301 11.3259 2.35635C13.3766 1.38968 15.5846 0.773014 17.9499 0.506348V18.3563H11.8499ZM22.0499 18.3563V0.506348C24.4166 0.773014 26.6253 1.38968 28.6759 2.35635C30.7266 3.32301 32.5513 4.60635 34.1499 6.20635C32.4499 7.80635 31.0913 9.63168 30.0739 11.6823C29.0566 13.733 28.4153 15.9577 28.1499 18.3563H22.0499ZM17.9499 40.3064C15.5499 40.0397 13.3333 39.415 11.2999 38.4324C9.26661 37.4497 7.44995 36.1577 5.84995 34.5564C7.54995 32.9564 8.90861 31.1397 9.92595 29.1063C10.9433 27.073 11.5846 24.8563 11.8499 22.4563H17.9499V40.3064ZM22.0499 40.3064V22.4563H28.1499C28.4166 24.8563 29.0586 27.0817 30.0759 29.1323C31.0933 31.183 32.4513 33.0077 34.1499 34.6063C32.5499 36.2063 30.7246 37.4897 28.6739 38.4563C26.6233 39.423 24.4153 40.0397 22.0499 40.3064Z" fill="#232B2B"/>
</svg>
