<svg width="20" height="20" viewBox="0 0 20 20" fill="none" xmlns="http://www.w3.org/2000/svg">
<g clip-path="url(#clip0_209_753)">
<path d="M0.0608333 7.31229H2.65667C4.89 7.31229 5.76333 8.62229 5.76333 10.0098C5.76333 11.4215 4.6425 12.679 2.51167 12.679H0.065C0.02 12.679 0.00416667 12.6506 0.00416667 12.6265C0.00416667 12.5981 0.0325 12.574 0.0725 12.574H0.53C0.671667 12.574 0.764167 12.489 0.764167 12.3315V7.66812C0.764167 7.55146 0.7075 7.42146 0.521667 7.42146H0.0566667C0.02 7.42146 0 7.39729 0 7.36896C0 7.34479 0.00833333 7.31229 0.0608333 7.31229ZM1.6825 12.429C1.6825 12.5456 1.735 12.5823 1.81167 12.5823H2.5C4.195 12.5823 4.80917 11.284 4.80917 9.98229C4.80917 8.68062 4.15833 7.41646 2.72583 7.41646H1.79167C1.69417 7.41646 1.68667 7.49729 1.68667 7.53396L1.6825 12.4273V12.429ZM6.02167 7.31229C5.98167 7.31229 5.945 7.32896 5.945 7.36063C5.945 7.39229 5.965 7.41312 6.00167 7.41312H6.45833C6.56417 7.41312 6.665 7.48646 6.665 7.68812V12.3356C6.665 12.4323 6.59167 12.5773 6.4625 12.5773H6.01C5.9575 12.5773 5.95333 12.619 5.95333 12.6348C5.95333 12.6506 5.94917 12.679 6.01 12.679H8.21C8.2425 12.679 8.28667 12.6748 8.28667 12.6423C8.28667 12.6098 8.27833 12.5781 8.22167 12.5781H7.79667C7.73667 12.5781 7.57083 12.5415 7.57083 12.3556V7.63979C7.57083 7.50646 7.65583 7.41729 7.80917 7.41729H8.22583C8.2625 7.41729 8.2825 7.39729 8.2825 7.36896C8.2825 7.34063 8.2625 7.31646 8.21333 7.31646C8.21333 7.31229 6.01333 7.32479 6.02167 7.31229ZM9.45917 9.99813C9.45917 8.51396 10.1225 7.31229 11.3675 7.31229C12.5892 7.31229 13.2767 8.51396 13.2767 9.99813C13.2767 11.4823 12.65 12.6831 11.3683 12.6831C10.1267 12.6873 9.46 11.4823 9.46 9.99813M11.3683 12.7965C13.14 12.7965 14.2558 11.5431 14.2558 10.0015C14.2558 8.45979 13.1517 7.20312 11.3683 7.20312C9.58917 7.20312 8.48083 8.45646 8.48083 9.99813C8.48083 11.5398 9.63333 12.7965 11.3683 12.7965ZM19.9183 12.6465C19.2225 12.7198 18.8375 11.5798 18.4858 11.0373C18.2233 10.6373 17.665 10.229 17.115 10.1473C18.0208 10.0948 19.0358 9.80396 19.0358 8.77646C19.0358 7.94312 18.5225 7.31229 16.6375 7.31229H14.4667C14.4383 7.31229 14.41 7.32896 14.41 7.36063C14.41 7.39229 14.4383 7.41312 14.4667 7.41312H14.9642C15.0692 7.41312 15.1708 7.48646 15.1708 7.68812V12.3356C15.1708 12.4323 15.0975 12.5773 14.9683 12.5773H14.4792C14.4383 12.5773 14.4225 12.6106 14.4225 12.6265C14.4225 12.6423 14.4392 12.679 14.4792 12.679H16.7842C16.8167 12.679 16.845 12.6623 16.845 12.6306C16.845 12.599 16.825 12.5781 16.78 12.5781H16.315C16.2542 12.5781 16.0883 12.5373 16.0883 12.3556V10.1598H16.3275C17.4675 10.1598 17.5525 11.3973 18.1192 12.1048C18.6042 12.7115 19.2392 12.7881 19.5992 12.7881C19.7525 12.7881 19.8575 12.784 19.955 12.7598C20.0158 12.7398 20.0275 12.6348 19.9183 12.6465ZM16.3192 7.41312H16.655C17.2292 7.41312 18.1592 7.63979 18.1592 8.72396C18.1592 9.71896 17.3342 10.0548 16.57 10.0548H16.0808V7.63979C16.0808 7.50229 16.1658 7.41396 16.3192 7.41396" fill="black"/>
</g>
<defs>
<clipPath id="clip0_209_753">
<rect width="20" height="20" fill="white"/>
</clipPath>
</defs>
</svg>
