<svg width="16" height="12" viewBox="0 0 16 12" fill="none" xmlns="http://www.w3.org/2000/svg">
<path d="M14 0H2C1.175 0 0.5075 0.675 0.5075 1.5L0.5 10.5C0.5 11.325 1.175 12 2 12H14C14.825 12 15.5 11.325 15.5 10.5V1.5C15.5 0.675 14.825 0 14 0ZM13.7 3.1875L8.3975 6.5025C8.1575 6.6525 7.8425 6.6525 7.6025 6.5025L2.3 3.1875C2.2248 3.14528 2.15894 3.08825 2.10642 3.01984C2.05389 2.95143 2.0158 2.87308 1.99443 2.78953C1.97307 2.70597 1.96888 2.61895 1.98212 2.53373C1.99536 2.44851 2.02575 2.36686 2.07146 2.29373C2.11717 2.22059 2.17724 2.15749 2.24804 2.10825C2.31885 2.059 2.3989 2.02463 2.48337 2.00722C2.56784 1.98981 2.65496 1.98972 2.73947 2.00696C2.82397 2.0242 2.9041 2.0584 2.975 2.1075L8 5.25L13.025 2.1075C13.0959 2.0584 13.176 2.0242 13.2605 2.00696C13.345 1.98972 13.4322 1.98981 13.5166 2.00722C13.6011 2.02463 13.6812 2.059 13.752 2.10825C13.8228 2.15749 13.8828 2.22059 13.9285 2.29373C13.9742 2.36686 14.0046 2.44851 14.0179 2.53373C14.0311 2.61895 14.0269 2.70597 14.0056 2.78953C13.9842 2.87308 13.9461 2.95143 13.8936 3.01984C13.8411 3.08825 13.7752 3.14528 13.7 3.1875Z" fill="black"/>
</svg>
