<svg width="19" height="19" viewBox="0 0 19 19" fill="none" xmlns="http://www.w3.org/2000/svg">
<path d="M17.8672 12.7205C18.5236 10.8403 18.5236 8.79303 17.8672 6.91274C17.86 6.87614 17.849 6.8404 17.8344 6.8061C17.2162 5.09134 16.0842 3.60899 14.5927 2.5612C13.1012 1.51341 11.3228 0.951172 9.49999 0.951172C7.67722 0.951172 5.89882 1.51341 4.4073 2.5612C2.91579 3.60899 1.78377 5.09134 1.16562 6.8061C1.15098 6.8404 1.13998 6.87614 1.13281 6.91274C0.476361 8.79303 0.476361 10.8403 1.13281 12.7205C1.13998 12.7571 1.15098 12.7929 1.16562 12.8272C1.78377 14.5419 2.91579 16.0243 4.4073 17.0721C5.89882 18.1199 7.67722 18.6821 9.49999 18.6821C11.3228 18.6821 13.1012 18.1199 14.5927 17.0721C16.0842 16.0243 17.2162 14.5419 17.8344 12.8272C17.849 12.7929 17.86 12.7571 17.8672 12.7205ZM7.87577 13.426H11.1242C10.7509 14.4093 10.2004 15.3157 9.49999 16.1002C8.79957 15.3157 8.24904 14.4093 7.87577 13.426ZM7.33437 11.4573C7.15937 10.3705 7.15937 9.26277 7.33437 8.17602H11.6656C11.8406 9.26277 11.8406 10.3705 11.6656 11.4573H7.33437ZM2.60937 9.81664C2.61169 9.26402 2.67775 8.7135 2.80624 8.17602H5.34101C5.27229 8.72023 5.23668 9.26812 5.23437 9.81664C5.23641 10.3652 5.27203 10.9131 5.34101 11.4573H2.80624C2.67775 10.9198 2.61169 10.3693 2.60937 9.81664ZM11.1242 6.20727H7.87577C8.24904 5.22402 8.79957 4.3176 9.49999 3.53305C10.2004 4.3176 10.7509 5.22402 11.1242 6.20727ZM13.659 8.17602H16.1937C16.4563 9.25401 16.4563 10.3793 16.1937 11.4573H13.659C13.728 10.9131 13.7636 10.3652 13.7656 9.81664C13.7633 9.26812 13.7277 8.72023 13.659 8.17602ZM15.3652 6.20727H13.2242C12.9059 5.18871 12.4417 4.22164 11.8461 3.33618C13.3064 3.87419 14.545 4.88473 15.3652 6.20727ZM7.1539 3.33618C6.55829 4.22164 6.0941 5.18871 5.77577 6.20727H3.63476C4.45499 4.88473 5.69362 3.87419 7.1539 3.33618ZM3.63476 13.426H5.77577C6.0941 14.4446 6.55829 15.4117 7.1539 16.2971C5.69203 15.7619 4.45257 14.7507 3.63476 13.426ZM11.8461 16.2971C12.4417 15.4117 12.9059 14.4446 13.2242 13.426H15.3652C14.5474 14.7507 13.308 15.7619 11.8461 16.2971Z" fill="#232B2B"/>
</svg>
