<svg width="24" height="24" viewBox="0 0 24 24" fill="none" xmlns="http://www.w3.org/2000/svg">
<path d="M23.7666 9.6498H22.8V9.6H12V14.4H18.7818C17.7924 17.1942 15.1338 19.2 12 19.2C8.0238 19.2 4.8 15.9762 4.8 12C4.8 8.0238 8.0238 4.8 12 4.8C13.8354 4.8 15.5052 5.4924 16.7766 6.6234L20.1708 3.2292C18.0276 1.2318 15.1608 0 12 0C5.373 0 0 5.373 0 12C0 18.627 5.373 24 12 24C18.627 24 24 18.627 24 12C24 11.1954 23.9172 10.41 23.7666 9.6498Z" fill="#FFC107"/>
<path d="M1.38359 6.4146L5.32619 9.306C6.39299 6.6648 8.97659 4.8 12 4.8C13.8354 4.8 15.5052 5.4924 16.7766 6.6234L20.1708 3.2292C18.0276 1.2318 15.1608 0 12 0C7.39079 0 3.39359 2.6022 1.38359 6.4146Z" fill="#FF3D00"/>
<path d="M12.0002 24C15.0998 24 17.9162 22.8138 20.0456 20.8848L16.3316 17.742C15.0863 18.689 13.5647 19.2012 12.0002 19.2C8.87898 19.2 6.22878 17.2098 5.23038 14.4324L1.31718 17.4474C3.30318 21.3336 7.33638 24 12.0002 24Z" fill="#4CAF50"/>
<path d="M23.7666 9.6499H22.8V9.6001H12V14.4001H18.7818C18.3085 15.7299 17.456 16.892 16.3296 17.7427L16.3314 17.7415L20.0454 20.8843C19.7826 21.1231 24 18.0001 24 12.0001C24 11.1955 23.9172 10.4101 23.7666 9.6499Z" fill="#1976D2"/>
</svg>
