<svg width="24" height="25" viewBox="0 0 24 25" fill="none" xmlns="http://www.w3.org/2000/svg">
<path d="M21.4 13.2665L18.62 14.6565C18.43 14.7565 18.2 14.7165 18.04 14.5665L16.17 12.6965C15.97 12.4965 15.97 12.1865 16.17 11.9865L18.07 10.0865C18.22 9.93648 18.46 9.89648 18.65 9.99648L21.4 11.3765C22.19 11.7565 22.19 12.8765 21.4 13.2665ZM16.3 8.80748C16.61 8.95748 16.67 9.36748 16.43 9.60748L14.76 11.2775L14.05 11.9875C13.85 12.1875 13.54 12.1875 13.34 11.9875L6.20001 4.84848C5.80101 4.44848 6.27001 3.79848 6.78001 4.04848L16.3 8.80748ZM2.00001 20.4665V3.79648C2.00001 3.35648 2.53001 3.12648 2.85001 3.43648L11.62 11.9465C11.83 12.1465 11.82 12.4765 11.61 12.6765L2.84001 20.8365C2.76847 20.9028 2.67907 20.9468 2.58284 20.963C2.48661 20.9791 2.38775 20.9668 2.29845 20.9275C2.20915 20.8881 2.13331 20.8235 2.08028 20.7416C2.02725 20.6597 1.99935 20.5641 2.00001 20.4665ZM16.27 15.8355L6.88001 20.5355C6.37001 20.7855 5.90001 20.1355 6.30001 19.7355L13.35 12.6855C13.55 12.4855 13.86 12.4855 14.06 12.6855L16.41 15.0355C16.64 15.2755 16.57 15.6855 16.27 15.8355Z" fill="white"/>
</svg>
