<svg width="61" height="61" viewBox="0 0 61 61" fill="none" xmlns="http://www.w3.org/2000/svg">
<path d="M23 55.3164H38C50.5 55.3164 55.5 50.3164 55.5 37.8164V22.8164C55.5 10.3164 50.5 5.31641 38 5.31641H23C10.5 5.31641 5.5 10.3164 5.5 22.8164V37.8164C5.5 50.3164 10.5 55.3164 23 55.3164Z" stroke="#676767" stroke-width="1.5" stroke-linecap="round" stroke-linejoin="round"/>
<path d="M25.5 42.8164H35.5C39.625 42.8164 43 39.4414 43 35.3164V25.3164C43 21.1914 39.625 17.8164 35.5 17.8164H25.5C21.375 17.8164 18 21.1914 18 25.3164V35.3164C18 39.4414 21.375 42.8164 25.5 42.8164Z" stroke="#676767" stroke-width="1.5" stroke-linecap="round" stroke-linejoin="round"/>
<path d="M30.5 17.8164V42.8164" stroke="#676767" stroke-width="1.5" stroke-linecap="round" stroke-linejoin="round"/>
<path d="M18 30.3164H43" stroke="#676767" stroke-width="1.5" stroke-linecap="round" stroke-linejoin="round"/>
</svg>
