<svg width="20" height="20" viewBox="0 0 20 20" fill="none" xmlns="http://www.w3.org/2000/svg">
<path d="M0 6V14H20V6H0ZM10.0017 13.6C4.42333 13.6 0.4 11.9667 0.4 10C0.4 8.03333 4.42583 6.4 10.0017 6.4C15.5767 6.4 19.6 8.03333 19.6 10C19.6 11.9667 15.58 13.6 10.0017 13.6ZM9.81417 8.54833H13.2942V9.35167C13.2083 9.3125 13.125 9.3125 13.0392 9.3125H11.5742V9.69583H12.9817V10.3058H11.5742V10.6867H13.0392C13.125 10.6867 13.2083 10.6867 13.2942 10.645V11.4508H9.81417C9.8575 11.3667 9.8575 11.2858 9.8575 11.2017V8.8C9.8575 8.71583 9.8575 8.635 9.81417 8.54833ZM3.9175 8.8V11.2008C3.9175 11.285 3.9175 11.3658 3.96083 11.45H2C2.04333 11.3658 2.04333 11.285 2.04333 11.2008V8.8C2.04333 8.71583 2.04333 8.635 2 8.55083H3.96083C3.9175 8.635 3.9175 8.71583 3.9175 8.8ZM9.29 11.2008C9.35333 11.29 9.42167 11.3742 9.5025 11.45H7.3375C7.3375 11.3658 7.25417 11.195 7.1625 11.0608C7.07083 10.9267 6.575 10.1908 6.575 10.1908V11.2008C6.575 11.285 6.575 11.3658 6.61833 11.45H4.815C4.85833 11.3658 4.85833 11.285 4.85833 11.2008V8.8C4.85833 8.71583 4.85833 8.635 4.815 8.55083H6.61833C6.575 8.635 6.575 8.71583 6.575 8.8V9.84917C6.575 9.84917 7.15083 9.11583 7.28333 8.945C7.38333 8.81667 7.50667 8.63417 7.50667 8.55083H9.3875C9.25833 8.635 9.115 8.78583 8.9975 8.92583L8.30917 9.74583C8.30917 9.74583 9.175 11.0358 9.29 11.2008ZM18.0783 8.69667C18.0783 8.65776 18.0631 8.6204 18.0358 8.59265C18.0085 8.56491 17.9714 8.54899 17.9325 8.54833H17.7575V9.0075H17.8267V8.845H17.9267L18.0183 9.0075H18.0958L17.9958 8.83083C18.0204 8.81802 18.0411 8.79878 18.0556 8.77515C18.0702 8.75153 18.078 8.7244 18.0783 8.69667ZM17.9208 8.78083H17.8258V8.62167H17.9292C17.975 8.62167 18.0067 8.66083 18.0067 8.70583C18.0067 8.75 17.9667 8.78333 17.9208 8.78083ZM17.9033 8.4H17.8775C17.8285 8.40075 17.7801 8.41124 17.7352 8.43085C17.6902 8.45046 17.6496 8.47881 17.6158 8.51424C17.5819 8.54968 17.5554 8.59149 17.5378 8.63726C17.5202 8.68302 17.5119 8.73183 17.5133 8.78083C17.5133 8.78667 17.5133 8.795 17.5108 8.8C17.515 8.90257 17.5595 8.99934 17.6348 9.06914C17.7101 9.13895 17.8099 9.17611 17.9125 9.1725C17.9633 9.17185 18.0134 9.1612 18.0601 9.14116C18.1068 9.12113 18.149 9.09209 18.1845 9.05572C18.2199 9.01935 18.2478 8.97636 18.2667 8.92919C18.2855 8.88202 18.2948 8.83161 18.2942 8.78083V8.76667C18.2927 8.7169 18.2813 8.66793 18.2609 8.62255C18.2404 8.57716 18.2112 8.53627 18.1749 8.50221C18.1386 8.46814 18.0959 8.44158 18.0493 8.42404C18.0027 8.4065 17.9531 8.39833 17.9033 8.4ZM17.9033 9.08583C17.8215 9.0865 17.7428 9.05482 17.6843 8.99769C17.6257 8.94056 17.5921 8.86262 17.5908 8.78083V8.75833C17.5928 8.71925 17.6024 8.68093 17.6191 8.64556C17.6359 8.6102 17.6594 8.57849 17.6885 8.55225C17.7175 8.526 17.7514 8.50575 17.7883 8.49264C17.8252 8.47952 17.8643 8.47381 17.9033 8.47583C18.075 8.47583 18.2158 8.61333 18.2158 8.78083C18.2158 8.94833 18.0758 9.08583 17.9033 9.08583ZM17.1725 8.80333C17.1408 8.71917 17.095 8.63833 17.1183 8.55417H14.6042C14.6158 8.63833 14.5842 8.71917 14.5525 8.80333L13.6608 11.2042C13.633 11.2955 13.5871 11.3802 13.5258 11.4533H15.0133C15.0017 11.3692 15.0333 11.2883 15.0617 11.2042C15.09 11.12 15.1217 11.0392 15.1217 11.0392L15.1392 10.9942H16.2258L16.2433 11.0358C16.2833 11.1342 16.3125 11.2008 16.3125 11.2008C16.3467 11.285 16.3783 11.3658 16.37 11.45H18.2558C18.1922 11.3776 18.1442 11.2927 18.115 11.2008C17.8026 10.401 17.4885 9.6018 17.1725 8.80333ZM15.3667 10.3808C15.4958 10.0308 15.6075 9.7375 15.6158 9.70917C15.6392 9.6475 15.6558 9.58333 15.6675 9.51917C15.6817 9.58333 15.7017 9.6475 15.725 9.70917L15.9883 10.3808H15.3667Z" fill="#232B2B"/>
</svg>
