<svg width="48" height="35" viewBox="0 0 48 35" fill="none" xmlns="http://www.w3.org/2000/svg">
<path d="M4 34.4062C2.9 34.4062 1.958 34.0143 1.174 33.2303C0.390003 32.4463 -0.00132994 31.5049 3.39559e-06 30.4063H8C6.9 30.4063 5.958 30.0143 5.174 29.2303C4.39 28.4463 3.99867 27.5049 4 26.4063V4.40625C4 3.30625 4.392 2.36425 5.176 1.58025C5.96 0.796253 6.90134 0.40492 8 0.406253H40C41.1 0.406253 42.042 0.798253 42.826 1.58225C43.61 2.36625 44.0013 3.30759 44 4.40625V26.4063C44 27.5063 43.608 28.4483 42.824 29.2323C42.04 30.0163 41.0987 30.4076 40 30.4063H48C48 31.5063 47.608 32.4483 46.824 33.2323C46.04 34.0163 45.0987 34.4076 44 34.4062H4ZM24 32.4062C24.5667 32.4062 25.042 32.2142 25.426 31.8302C25.81 31.4462 26.0013 30.9716 26 30.4063C26 29.8396 25.808 29.3643 25.424 28.9803C25.04 28.5963 24.5653 28.4049 24 28.4063C23.4333 28.4063 22.958 28.5983 22.574 28.9823C22.19 29.3663 21.9987 29.8409 22 30.4063C22 30.9729 22.192 31.4482 22.576 31.8322C22.96 32.2162 23.4347 32.4076 24 32.4062Z" fill="#232B2B"/>
</svg>
