<svg width="19" height="19" viewBox="0 0 19 19" fill="none" xmlns="http://www.w3.org/2000/svg">
<path d="M8.13477 14.4648C8.13477 15.2898 8.80977 15.9648 9.63477 15.9648C10.4598 15.9648 11.1348 15.2898 11.1348 14.4648C11.1348 13.6398 10.4598 12.9648 9.63477 12.9648C8.80977 12.9648 8.13477 13.6398 8.13477 14.4648Z" fill="#232B2B"/>
<path d="M8.13477 3.96484C8.13477 4.78984 8.80977 5.46484 9.63477 5.46484C10.4598 5.46484 11.1348 4.78984 11.1348 3.96484C11.1348 3.13984 10.4598 2.46484 9.63477 2.46484C8.80977 2.46484 8.13477 3.13984 8.13477 3.96484Z" fill="#232B2B"/>
<path d="M8.13477 9.21484C8.13477 10.0398 8.80977 10.7148 9.63477 10.7148C10.4598 10.7148 11.1348 10.0398 11.1348 9.21484C11.1348 8.38984 10.4598 7.71484 9.63477 7.71484C8.80977 7.71484 8.13477 8.38984 8.13477 9.21484Z" fill="#232B2B"/>
</svg>
