<svg width="20" height="20" viewBox="0 0 20 20" fill="none" xmlns="http://www.w3.org/2000/svg">
<path d="M20 6.5L5.36833 12.73C4.155 13.2433 3.13583 13.5008 2.31166 13.5008C1.37833 13.5008 0.700831 13.1742 0.280831 12.52C0.0166641 12.1 -0.0608359 11.5675 0.0474974 10.9217C0.155831 10.2758 0.444164 9.58833 0.910831 8.85667C1.3 8.265 1.9375 7.4875 2.825 6.52333C2.52397 6.99722 2.30322 7.51755 2.17166 8.06333C1.93833 9.05917 2.14833 9.79 2.80166 10.2567C3.1125 10.4742 3.54 10.5833 4.085 10.5833C4.52 10.5833 5.01 10.5133 5.555 10.3733L20 6.5Z" fill="#232B2B"/>
</svg>
