<svg width="18" height="18" viewBox="0 0 18 18" fill="none" xmlns="http://www.w3.org/2000/svg">
<path d="M10.029 1.57045C8.2351 1.32464 6.41281 1.73591 4.89837 2.72838C3.38393 3.72085 2.27952 5.22755 1.78892 6.97049C1.29831 8.71342 1.45461 10.575 2.22898 12.2117C3.00334 13.8485 4.34353 15.1499 6.00226 15.8759C5.95718 15.3001 5.99813 14.7207 6.12376 14.1569C6.26251 13.5277 7.09576 10.0597 7.09576 10.0597C6.92981 9.68778 6.84689 9.28417 6.85276 8.87695C6.85276 7.7632 7.49551 6.9322 8.29501 6.9322C8.43864 6.93011 8.58103 6.95897 8.71251 7.01682C8.84399 7.07467 8.96147 7.16016 9.05697 7.26747C9.15246 7.37477 9.22373 7.50138 9.26593 7.63869C9.30812 7.776 9.32026 7.92078 9.30151 8.0632C9.30151 8.7382 8.86801 9.7597 8.64151 10.7182C8.59674 10.894 8.5939 11.0778 8.63321 11.2549C8.67253 11.432 8.75289 11.5974 8.86783 11.7377C8.98276 11.878 9.12906 11.9894 9.29493 12.0628C9.4608 12.1363 9.6416 12.1697 9.82276 12.1604C11.2455 12.1604 12.2003 10.3372 12.2003 8.1847C12.2003 6.53395 11.1075 5.2987 9.09301 5.2987C8.61104 5.27997 8.13029 5.35939 7.67996 5.53214C7.22962 5.70489 6.81909 5.96736 6.47329 6.30361C6.1275 6.63987 5.85365 7.0429 5.66837 7.48823C5.4831 7.93356 5.39026 8.41189 5.39551 8.8942C5.37403 9.42919 5.54663 9.95392 5.88151 10.3717C5.94408 10.4184 5.98977 10.4842 6.01169 10.5591C6.0336 10.6341 6.03056 10.7141 6.00301 10.7872C5.96851 10.9252 5.88151 11.2544 5.84701 11.3759C5.83973 11.4168 5.82297 11.4554 5.79806 11.4887C5.77315 11.5219 5.7408 11.5488 5.7036 11.5673C5.6664 11.5857 5.62539 11.5952 5.58387 11.5949C5.54234 11.5946 5.50146 11.5846 5.46451 11.5657C4.42651 11.1502 3.93751 10.0079 3.93751 8.7037C3.93751 6.56845 5.72551 4.01245 9.30301 4.01245C12.15 4.01245 14.0423 6.0952 14.0423 8.3227C14.0423 11.2544 12.4103 13.4587 9.99751 13.4587C9.6369 13.4702 9.2792 13.3906 8.9575 13.2273C8.6358 13.064 8.36049 12.8221 8.15701 12.5242C8.15701 12.5242 7.72276 14.2612 7.63801 14.5897C7.46349 15.1572 7.20595 15.6958 6.87376 16.1879C7.56601 16.3979 8.28526 16.5029 9.00826 16.4999C9.99338 16.5007 10.969 16.3072 11.8792 15.9305C12.7894 15.5537 13.6164 15.0011 14.3128 14.3043C15.0092 13.6075 15.5613 12.7802 15.9375 11.8697C16.3137 10.9593 16.5066 9.98357 16.5053 8.99845C16.5045 7.18707 15.8484 5.43713 14.658 4.07182C13.4676 2.7065 11.8234 1.81801 10.029 1.57045Z" fill="#232B2B"/>
</svg>
