<svg width="16" height="16" viewBox="0 0 16 16" fill="none" xmlns="http://www.w3.org/2000/svg">
<path d="M9.02901 0.570449C7.2351 0.324638 5.41281 0.735908 3.89837 1.72838C2.38393 2.72085 1.27952 4.22755 0.788916 5.97049C0.298309 7.71342 0.454608 9.57499 1.22898 11.2117C2.00334 12.8485 3.34353 14.1499 5.00226 14.8759C4.95718 14.3001 4.99813 13.7207 5.12376 13.1569C5.26251 12.5277 6.09576 9.0597 6.09576 9.0597C5.92981 8.68778 5.84689 8.28417 5.85276 7.87695C5.85276 6.7632 6.49551 5.9322 7.29501 5.9322C7.43864 5.93011 7.58103 5.95897 7.71251 6.01682C7.84399 6.07467 7.96147 6.16016 8.05697 6.26747C8.15246 6.37477 8.22373 6.50138 8.26593 6.63869C8.30812 6.776 8.32026 6.92078 8.30151 7.0632C8.30151 7.7382 7.86801 8.7597 7.64151 9.7182C7.59674 9.89398 7.5939 10.0778 7.63321 10.2549C7.67253 10.432 7.75289 10.5974 7.86783 10.7377C7.98276 10.878 8.12906 10.9894 8.29493 11.0628C8.4608 11.1363 8.6416 11.1697 8.82276 11.1604C10.2455 11.1604 11.2003 9.3372 11.2003 7.1847C11.2003 5.53395 10.1075 4.2987 8.09301 4.2987C7.61104 4.27997 7.13029 4.35939 6.67996 4.53214C6.22962 4.70489 5.81909 4.96736 5.47329 5.30361C5.1275 5.63987 4.85365 6.0429 4.66837 6.48823C4.4831 6.93356 4.39026 7.41189 4.39551 7.8942C4.37403 8.42919 4.54663 8.95392 4.88151 9.3717C4.94408 9.41841 4.98977 9.4842 5.01169 9.55914C5.0336 9.63409 5.03056 9.71413 5.00301 9.7872C4.96851 9.9252 4.88151 10.2544 4.84701 10.3759C4.83973 10.4168 4.82297 10.4554 4.79806 10.4887C4.77315 10.5219 4.7408 10.5488 4.7036 10.5673C4.6664 10.5857 4.62539 10.5952 4.58387 10.5949C4.54234 10.5946 4.50146 10.5846 4.46451 10.5657C3.42651 10.1502 2.93751 9.00795 2.93751 7.7037C2.93751 5.56845 4.72551 3.01245 8.30301 3.01245C11.15 3.01245 13.0423 5.0952 13.0423 7.3227C13.0423 10.2544 11.4103 12.4587 8.99751 12.4587C8.6369 12.4702 8.2792 12.3906 7.9575 12.2273C7.6358 12.064 7.36049 11.8221 7.15701 11.5242C7.15701 11.5242 6.72276 13.2612 6.63801 13.5897C6.46349 14.1572 6.20595 14.6958 5.87376 15.1879C6.56601 15.3979 7.28526 15.5029 8.00826 15.4999C8.99338 15.5007 9.96898 15.3072 10.8792 14.9305C11.7894 14.5537 12.6164 14.0011 13.3128 13.3043C14.0092 12.6075 14.5613 11.7802 14.9375 10.8697C15.3137 9.95929 15.5066 8.98357 15.5053 7.99845C15.5045 6.18707 14.8484 4.43713 13.658 3.07182C12.4676 1.7065 10.8234 0.818015 9.02901 0.570449Z" fill="#232B2B"/>
</svg>
