<svg width="16" height="16" viewBox="0 0 16 16" fill="none" xmlns="http://www.w3.org/2000/svg">
<path d="M11.5666 6.03344L10.0066 11.0601C9.63331 12.2534 7.95998 12.2734 7.56665 11.0868L7.09998 9.70677C6.97332 9.32677 6.67331 9.02011 6.29331 8.90011L4.90665 8.43343C3.72665 8.0401 3.74665 6.35344 4.93998 5.99344L9.96665 4.42677C10.9533 4.12677 11.88 5.05344 11.5666 6.03344Z" stroke="#232B2B" stroke-width="1.5" stroke-linecap="round" stroke-linejoin="round"/>
<path d="M6.00004 14.6666H10C13.3334 14.6666 14.6667 13.3333 14.6667 9.99992V5.99992C14.6667 2.66659 13.3334 1.33325 10 1.33325H6.00004C2.66671 1.33325 1.33337 2.66659 1.33337 5.99992V9.99992C1.33337 13.3333 2.66671 14.6666 6.00004 14.6666Z" stroke="#232B2B" stroke-width="1.5" stroke-linecap="round" stroke-linejoin="round"/>
</svg>
