<svg width="14" height="15" viewBox="0 0 14 15" fill="none" xmlns="http://www.w3.org/2000/svg">
<path d="M7.00001 10.977L4.57918 12.4354C4.47223 12.5034 4.36043 12.5326 4.24376 12.5229C4.12709 12.5131 4.02501 12.4742 3.93751 12.4062C3.85001 12.3381 3.78195 12.253 3.73334 12.1507C3.68473 12.0484 3.67501 11.9343 3.70418 11.8083L4.34584 9.05202L2.20209 7.19993C2.10487 7.11243 2.0442 7.01268 2.02009 6.90068C1.99598 6.78868 2.00318 6.67941 2.04168 6.57285C2.08056 6.46591 2.1389 6.37841 2.21668 6.31035C2.29445 6.2423 2.4014 6.19855 2.53751 6.1791L5.36668 5.93119L6.46043 3.33535C6.50904 3.21869 6.58448 3.13118 6.68676 3.07285C6.78904 3.01452 6.89345 2.98535 7.00001 2.98535C7.10695 2.98535 7.21137 3.01452 7.31326 3.07285C7.41515 3.13118 7.49059 3.21869 7.53959 3.33535L8.63334 5.93119L11.4625 6.1791C11.5986 6.19855 11.7056 6.2423 11.7833 6.31035C11.8611 6.37841 11.9195 6.46591 11.9583 6.57285C11.9972 6.6798 12.0046 6.78927 11.9805 6.90127C11.9564 7.01327 11.8955 7.11282 11.7979 7.19993L9.65417 9.05202L10.2958 11.8083C10.325 11.9347 10.3153 12.049 10.2667 12.1513C10.2181 12.2535 10.15 12.3385 10.0625 12.4062C9.97501 12.4742 9.87293 12.5131 9.75626 12.5229C9.63959 12.5326 9.52779 12.5034 9.42084 12.4354L7.00001 10.977Z" fill="#232B2B"/>
</svg>
