<svg width="14" height="15" viewBox="0 0 14 15" fill="none" xmlns="http://www.w3.org/2000/svg">
<path d="M7.00001 11.477L4.57918 12.9354C4.47223 13.0034 4.36043 13.0326 4.24376 13.0229C4.12709 13.0131 4.02501 12.9742 3.93751 12.9062C3.85001 12.8381 3.78195 12.753 3.73334 12.6507C3.68473 12.5484 3.67501 12.4343 3.70418 12.3083L4.34584 9.55202L2.20209 7.69993C2.10487 7.61243 2.0442 7.51268 2.02009 7.40068C1.99598 7.28868 2.00318 7.17941 2.04168 7.07285C2.08056 6.96591 2.1389 6.87841 2.21668 6.81035C2.29445 6.7423 2.4014 6.69855 2.53751 6.6791L5.36668 6.43119L6.46043 3.83535C6.50904 3.71869 6.58448 3.63118 6.68676 3.57285C6.78904 3.51452 6.89345 3.48535 7.00001 3.48535C7.10695 3.48535 7.21137 3.51452 7.31326 3.57285C7.41515 3.63118 7.49059 3.71869 7.53959 3.83535L8.63334 6.43119L11.4625 6.6791C11.5986 6.69855 11.7056 6.7423 11.7833 6.81035C11.8611 6.87841 11.9195 6.96591 11.9583 7.07285C11.9972 7.1798 12.0046 7.28927 11.9805 7.40127C11.9564 7.51327 11.8955 7.61282 11.7979 7.69993L9.65417 9.55202L10.2958 12.3083C10.325 12.4347 10.3153 12.549 10.2667 12.6513C10.2181 12.7535 10.15 12.8385 10.0625 12.9062C9.97501 12.9742 9.87293 13.0131 9.75626 13.0229C9.63959 13.0326 9.52779 13.0034 9.42084 12.9354L7.00001 11.477Z" fill="#F5F5F5"/>
</svg>
