<svg width="36" height="37" viewBox="0 0 36 37" fill="none" xmlns="http://www.w3.org/2000/svg">
<path d="M25.5 32.6662C23.84 32.6662 22.5 30.9862 22.5 28.9062C22.5 26.8463 23.84 25.1663 25.5 25.1663C27.16 25.1663 28.5 26.8463 28.5 28.9062C28.5 30.9862 27.16 32.6662 25.5 32.6662ZM18 16.9062C15.52 16.9062 13.5 15.2262 13.5 13.1663C13.5 11.0863 15.52 9.40625 18 9.40625C20.48 9.40625 22.5 11.0863 22.5 13.1663C22.5 15.2262 20.48 16.9062 18 16.9062ZM10.5 32.6662C8.84003 32.6662 7.50003 30.9862 7.50003 28.9062C7.50003 26.8463 8.84003 25.1663 10.5 25.1663C12.16 25.1663 13.5 26.8463 13.5 28.9062C13.5 30.9862 12.16 32.6662 10.5 32.6662ZM18 10.9062C18.82 10.9062 19.5 11.5863 19.5 12.4062C19.5 13.2262 18.82 13.9062 18 13.9062C17.18 13.9062 16.5 13.2262 16.5 12.4062C16.5 11.5863 17.18 10.9062 18 10.9062ZM31.5 18.4062C30.86 18.4062 30.24 18.5462 29.68 18.8062C28.72 17.5863 27.42 16.5462 25.86 15.7463C27 14.1462 27.68 12.2062 27.68 10.1062V9.98625C29.86 9.52625 31.5 7.58625 31.5 5.24625C31.5 2.58625 29.32 0.40625 26.66 0.40625C25.28 0.40625 24 0.98625 23.16 1.90625C21.6173 0.926621 19.8275 0.406398 18 0.406398C16.1725 0.406398 14.3828 0.926621 12.84 1.90625C12 0.98625 10.72 0.40625 9.34003 0.40625C6.68003 0.40625 4.50003 2.58625 4.50003 5.24625C4.50003 7.56625 6.14003 9.50625 8.30003 9.98625V10.1062C8.30003 12.2062 9.00003 14.1663 10.12 15.7463C8.58003 16.5462 7.28003 17.5863 6.32003 18.8062C5.63656 18.4984 4.88675 18.3669 4.13931 18.4239C3.39186 18.4809 2.67067 18.7246 2.0418 19.1325C1.41292 19.5405 0.896474 20.0998 0.539758 20.7591C0.183042 21.4184 -0.00253535 22.1566 2.61616e-05 22.9062C2.61616e-05 25.4062 2.00003 27.4062 4.50003 27.4062H4.62003C4.54003 27.8862 4.50003 28.4062 4.50003 28.9062C4.50003 33.0462 7.18003 36.4062 10.5 36.4062C12.52 36.4062 14.3 35.1462 15.4 33.2262C16.24 33.3462 17.1 33.4062 18 33.4062C18.9 33.4062 19.76 33.3462 20.6 33.2262C21.7 35.1462 23.48 36.4062 25.5 36.4062C28.82 36.4062 31.5 33.0462 31.5 28.9062C31.5 28.4062 31.46 27.8862 31.38 27.4062H31.5C34 27.4062 36 25.4062 36 22.9062C36 20.4062 34 18.4062 31.5 18.4062Z" fill="#232B2B"/>
</svg>
