<svg width="13" height="14" viewBox="0 0 13 14" fill="none" xmlns="http://www.w3.org/2000/svg">
<path d="M10.0301 2.365C9.51742 1.77972 9.23489 1.02807 9.2351 0.25H6.9176V9.55C6.89973 10.0533 6.68725 10.53 6.32493 10.8797C5.9626 11.2294 5.47869 11.4249 4.9751 11.425C3.9101 11.425 3.0251 10.555 3.0251 9.475C3.0251 8.185 4.2701 7.2175 5.5526 7.615V5.245C2.9651 4.9 0.700104 6.91 0.700104 9.475C0.700104 11.9725 2.7701 13.75 4.9676 13.75C7.3226 13.75 9.2351 11.8375 9.2351 9.475V4.7575C10.1748 5.43239 11.3031 5.79449 12.4601 5.7925V3.475C12.4601 3.475 11.0501 3.5425 10.0301 2.365Z" fill="#232B2B"/>
</svg>
