<svg width="18" height="18" viewBox="0 0 18 18" fill="none" xmlns="http://www.w3.org/2000/svg">
<path d="M12.0301 4.365C11.5174 3.77972 11.2349 3.02807 11.2351 2.25H8.9176V11.55C8.89973 12.0533 8.68725 12.53 8.32493 12.8797C7.9626 13.2294 7.47869 13.4249 6.9751 13.425C5.9101 13.425 5.0251 12.555 5.0251 11.475C5.0251 10.185 6.2701 9.2175 7.5526 9.615V7.245C4.9651 6.9 2.7001 8.91 2.7001 11.475C2.7001 13.9725 4.7701 15.75 6.9676 15.75C9.3226 15.75 11.2351 13.8375 11.2351 11.475V6.7575C12.1748 7.43239 13.3031 7.79449 14.4601 7.7925V5.475C14.4601 5.475 13.0501 5.5425 12.0301 4.365Z" fill="#232B2B"/>
</svg>
