<svg width="16" height="14" viewBox="0 0 16 14" fill="none" xmlns="http://www.w3.org/2000/svg">
<path d="M15.5 2.34967C14.9363 2.59424 14.3401 2.75592 13.73 2.82967C14.3736 2.44516 14.856 1.84026 15.0875 1.12717C14.4827 1.48722 13.8206 1.74089 13.13 1.87717C12.6684 1.3766 12.0537 1.04339 11.3824 0.929808C10.711 0.816224 10.0209 0.928688 9.42034 1.24956C8.81978 1.57043 8.3427 2.08157 8.06393 2.7028C7.78516 3.32402 7.72047 4.02021 7.88 4.68217C6.65707 4.62031 5.46083 4.30188 4.36899 3.74756C3.27715 3.19325 2.31413 2.41544 1.5425 1.46467C1.27185 1.93729 1.12964 2.47254 1.13 3.01717C1.12904 3.52295 1.25316 4.02113 1.49132 4.46734C1.72947 4.91355 2.07426 5.29395 2.495 5.57467C2.00598 5.56136 1.52741 5.43014 1.1 5.19217V5.22967C1.10367 5.93834 1.352 6.62399 1.80299 7.17064C2.25398 7.7173 2.87994 8.0914 3.575 8.22967C3.30744 8.31109 3.02966 8.35402 2.75 8.35717C2.55642 8.35491 2.36332 8.33735 2.1725 8.30467C2.37043 8.91428 2.75347 9.44703 3.26831 9.82879C3.78314 10.2105 4.40418 10.4223 5.045 10.4347C3.9629 11.2861 2.62691 11.7508 1.25 11.7547C0.999301 11.7555 0.748802 11.7405 0.5 11.7097C1.90582 12.6174 3.54411 13.0992 5.2175 13.0972C6.37227 13.1092 7.51785 12.8909 8.58734 12.4552C9.65682 12.0195 10.6288 11.3751 11.4464 10.5595C12.264 9.744 12.911 8.77371 13.3494 7.70535C13.7879 6.63698 14.009 5.49196 14 4.33717V3.93967C14.5885 3.50078 15.0961 2.96274 15.5 2.34967Z" fill="#232B2B"/>
</svg>
