<svg width="16" height="12" viewBox="0 0 16 12" fill="none" xmlns="http://www.w3.org/2000/svg">
<path fill-rule="evenodd" clip-rule="evenodd" d="M8 0C8.64125 0 9.299 0.0165001 9.9365 0.0435001L10.6895 0.0795L11.4102 0.12225L12.0852 0.168L12.7017 0.216C13.3708 0.267208 14.0003 0.55271 14.4796 1.02228C14.959 1.49185 15.2573 2.1154 15.3222 2.78325L15.3522 3.102L15.4085 3.7845C15.461 4.49175 15.5 5.26275 15.5 6C15.5 6.73725 15.461 7.50825 15.4085 8.2155L15.3522 8.898C15.3425 9.0075 15.3327 9.11325 15.3222 9.21675C15.2573 9.88471 14.9588 10.5084 14.4794 10.9779C13.9999 11.4475 13.3702 11.733 12.701 11.784L12.086 11.8312L11.411 11.8777L10.6895 11.9205L9.9365 11.9565C9.29137 11.9845 8.64573 11.999 8 12C7.35427 11.999 6.70862 11.9845 6.0635 11.9565L5.3105 11.9205L4.58975 11.8777L3.91475 11.8312L3.29825 11.784C2.62921 11.7328 1.99966 11.4473 1.52035 10.9777C1.04105 10.5082 0.742681 9.88459 0.67775 9.21675L0.64775 8.898L0.5915 8.2155C0.534153 7.47835 0.503633 6.73936 0.5 6C0.5 5.26275 0.539 4.49175 0.5915 3.7845L0.64775 3.102C0.6575 2.9925 0.66725 2.88675 0.67775 2.78325C0.742655 2.11552 1.04091 1.49206 1.52007 1.02251C1.99922 0.552953 2.6286 0.267377 3.2975 0.216L3.91325 0.168L4.58825 0.12225L5.30975 0.0795L6.06275 0.0435001C6.70812 0.0154747 7.35402 0.000971464 8 0ZM6.5 4.18125V7.81875C6.5 8.16525 6.875 8.38125 7.175 8.20875L10.325 6.39C10.3935 6.35054 10.4505 6.29372 10.4901 6.22525C10.5297 6.15678 10.5505 6.07909 10.5505 6C10.5505 5.92091 10.5297 5.84322 10.4901 5.77475C10.4505 5.70628 10.3935 5.64946 10.325 5.61L7.175 3.792C7.10657 3.75249 7.02894 3.7317 6.94993 3.73171C6.87091 3.73172 6.79329 3.75254 6.72487 3.79207C6.65646 3.8316 6.59965 3.88845 6.56018 3.9569C6.5207 4.02535 6.49995 4.10298 6.5 4.182V4.18125Z" fill="#232B2B"/>
</svg>
